<?xml version="1.0" encoding="UTF-8"?>
<svg id="Layer_2" data-name="Layer 2" xmlns="http://www.w3.org/2000/svg" viewBox="0 0 31.57 35.79">
  <defs>
    <style>
      .cls-1 {
        fill: #0c312a;
      }
    </style>
  </defs>
  <g id="Layer_1-2" data-name="Layer 1">
    <path class="cls-1" d="M15.07,15.05c-1.88-2.59-5.77-8.34-5.1-10.94,1.24-4.81,5.08-5.87,9.39-.66,6.3-2.48,9.15.3,7.91,5.11-.67,2.6-6.84,5.77-9.74,7.12,3.18-.34,10.11-.82,12.02,1.05,3.55,3.47,2.54,7.33-4.13,8.47-1,6.69-4.84,7.77-8.38,4.3-1.33-1.31-1.57-5.06-1.5-8.3-1.98,12.73-6.17,14.58-6.17,14.58l-1.56-.4s4.22-2.35,7.91-17.6c0-.1.02-.19.02-.28-1.3,2.93-4.34,9.17-6.92,9.89-4.78,1.33-7.62-1.46-5.27-7.81-5.3-4.21-4.31-8.07.47-9.41,2.59-.72,8.42,3.05,11.04,4.87Z"/>
  </g>
</svg>