<?xml version="1.0" encoding="UTF-8"?>
<svg id="Layer_2" data-name="Layer 2" xmlns="http://www.w3.org/2000/svg" viewBox="0 0 138.05 138.06">
  <defs>
    <style>
      .cls-1 {
        fill: #0d312b;
      }
    </style>
  </defs>
  <g id="Layer_1-2" data-name="Layer 1">
    <path class="cls-1" d="M110.11,104.4c.51.82,1.03,1.64,1.66,2.65.52-.79.9-1.38,1.37-2.09-1.09-.28-1.99-.51-2.9-.75-.05.06-.09.13-.14.19M29.51,26.88c.44.49.87.3,1.18-.16.17-.26.25-.57.41-.95-.22-.43-.37-.92-.68-1.3-.71-.89-1.75-1.05-2.48-.48-.29.23-.45.48-.18.81.57.7,1.15,1.41,1.75,2.08M130.02,72.88h-2.16c.37-.47.63-.79.89-1.13.56-.72.87-1.5.67-2.44-.08-.36-.22-.56-.64-.55-.76.03-1.52-.02-2.27.05-.21.02-.57.34-.55.49.06.55.19,1.1.4,1.61.14.34.45.61.77,1.02-.36.03-.54.06-.72.06-.8,0-1.6,0-2.62,0,.55-1.11,2.14-1.55,1.4-3.16-1.09,0-2.3-.07-3.5.03-.63.05-.98,1.31-.61,2.09.23.49.61.91.92,1.35.25.35.52.68.77,1.03-.03.06-.06.12-.09.18-.68-.13-1.35-.25-2.02-.42-.11-.03-.24-.27-.24-.42-.01-2.55,0-5.1,0-7.65,0-.08.05-.17.08-.29.85.1.51.94.92,1.34,2.1.06,4.25.16,6.4.17,1.28,0,1.45-.19,1.85-1.34.5.68.64,3.89.34,7.97M129.49,77.71c-.28,1.6-.65,3.19-.92,4.79-.13.74-.48.9-1.13.66-.3-.11-.61-.18-1.07-.32.41-.37.7-.67,1.02-.93.58-.49,1.01-1.05,1.11-1.83.09-.68-.2-1.05-.84-1.19-.67-.14-1.34-.32-2.03-.36-.22-.02-.56.28-.67.52-.35.78.02,1.47.44,2.12.11.17.26.32.47.56-1.25.22-2.29-.25-3.36-.52-.02-.08-.05-.16-.07-.24.29-.13.58-.31.88-.39.65-.17.96-.65,1.04-1.55.06-.66-.43-.77-.86-.86-.76-.16-1.53-.27-2.3-.35-.19-.02-.44.1-.6.24-.87.77-.88,2.16-.08,3.1.34.4.65.84.96,1.26-.07.08-.14.17-.22.26-.74-.27-1.48-.53-2.29-.82.46-2.62.91-5.19,1.38-7.76.03-.14.2-.25.3-.37.08.14.22.26.24.41.15.97.28,1.09,1.23,1.25,1.85.32,3.71.62,5.55,1.01.73.15,1.2.05,1.52-.63.07-.15.23-.27.52-.35-.08.77-.11,1.56-.24,2.32M116.28,107.14c-.03-.19-.08-.3-.06-.39.18-.94.09-1.09-.87-1.24-.46-.07-1.11-.33-1.34-.12-.66.58-1.32,1.29-1.64,2.08-.29.71.43,1.28.98,1.74.47.39.73-.05,1.04-.31.16-.13.36-.2.55-.3-.34,1.3-.92,2.37-2.2,3.16.52-1.85-.71-2.95-1.46-4.2-.99-1.65-2.13-3.22-2.73-5.08-.07-.24-.13-.47-.26-.93,1.1.15,2.08.22,3.02.42,1.9.41,3.78.93,5.69,1.32.7.14,1.45.02,2.23.02-.81,1.35-1.62,2.72-2.94,3.83M107.68,116.26c.05-.13.05-.31.13-.36.75-.48.48-.95.04-1.46-1.14-1.32-2.27-2.64-3.4-3.96-.08.05-.17.09-.25.14.4,1.19.78,2.39,1.19,3.58.42,1.21.88,2.41.75,3.91-2.26-1.12-4.42-2.18-6.58-3.25-.05.05-.09.09-.14.14.37.58.71,1.21,1.14,1.74.67.85,1.43,1.62,2.12,2.45.33.4.63.45,1.05.12.2-.16.47-.23.78-.37-.36,1.09-1.6,2.19-2.72,2.48,0-.11-.05-.27,0-.31.65-.6.35-1.14-.07-1.69-1.15-1.52-2.28-3.06-3.46-4.55-.75-.95-.79-.92-1.96-.55.18-.29.32-.64.56-.87.59-.54,1.22-1.05,1.87-1.52.13-.09.44-.03.62.06,1.69.82,3.37,1.65,5.19,2.55-.13-.66-.21-1.24-.37-1.79-.37-1.21-.78-2.4-1.16-3.6-.06-.2-.15-.51-.05-.63.75-.93,1.58-1.78,2.73-2.21.06.05.12.09.18.13-.2.28-.4.57-.66.95.72.91,1.44,1.88,2.24,2.79.83.95,1.75,1.82,2.61,2.74.42.44.81.57,1.28.09.08-.08.24-.08.38-.12-.06.87-3.08,3.4-4.03,3.38M94.82,127.85c-.1.09-.23.13-.51.3.17-.55.33-.94.39-1.35.06-.41.02-.83.02-1.3-.33.12-.53.23-.75.27-.5.11-.91-.06-1.16-.52-.24-.45-.22-.89.13-1.28.43-.47,1.42-.51,1.9-.09.96.86.96,3.12,0,3.97M82.61,129.54c-.03-.05-.07-.1-.1-.16.13-.13.24-.32.4-.39.55-.25.58-.69.43-1.15-.63-2.01-1.28-4.02-1.91-6.03-.17-.56-.48-.86-1.1-.72-.11.03-.25-.05-.41-.22.31-.16.6-.35.93-.46,1.31-.44,2.62-.83,3.93-1.26.7-.23,1.4-.46,2.07-.76.54-.25.79-.02.92.45.11.41.16.85.23,1.24-.97-.12-1.85-.31-2.73-.33-1.21-.02-1.51.4-1.24,1.57.1.45.26.88.44,1.3.37.88.71,1.03,1.5.46.53-.38.91-.97,1.42-1.54.58.82.94,1.78,1.12,3-.4-.2-.66-.34-.92-.45-.38-.16-.76-.35-1.15-.43-.97-.2-1.46.29-1.2,1.22.23.79.51,1.57.86,2.31.11.24.5.47.78.48,1.23.05,2.17-.49,2.72-1.62.18-.37.33-.75.53-1.21.76.6.35,1.49.74,2.2-2.76.95-5.4,2.05-8.23,2.5M75.75,130.49c.28-.21.49-.37.77-.57-.79-1.35-2-2.28-3.2-3.25-.52,1.85-.07,3.25,1.37,4.07-1.66.64-3.31.58-5.02.42.13-.11.24-.28.38-.31.77-.16.84-.7.77-1.34-.25-2.12-.47-4.24-.74-6.36-.02-.19-.31-.39-.52-.49-.23-.11-.52-.12-.78-.27,1.54-.62,3.13-.81,4.94-.75-.73.53-1.03,1.14-.95,1.9.07.68.13,1.37.2,2.19,1.49-.92,2.3-2.29,3.1-3.75-.47-.13-.8-.23-1.13-.32.01-.09.02-.19.03-.29,1.46-.03,2.86-.74,4.35-.32.02.09.04.17.06.26-.25.08-.5.14-.75.24-.47.18-1.04.28-1.39.6-.73.68-1.35,1.48-2.03,2.24,1.58,2.29,3.52,4.02,5.77,5.4-.56.7-3.58,1.12-5.23.69M65.62,130.2c-1.78.88-3.65,1.03-5.55.41-1.92-.63-2.98-1.99-3.2-3.98-.23-2.09.56-3.68,2.38-4.73,2.41-1.38,5.71-.94,7.58.99.86.89,1.31,2.06,1.3,3.52.04,1.73-.9,3-2.51,3.8M51.24,126.98c-.1.56-.05.99.54,1.25.12.05.19.22.29.33-.03.06-.06.12-.09.18-1.61-.33-3.14-.91-4.75-1.61.41-.21.77-.32,1.05-.55,1.11-.89,1.48-2.09,1.2-3.45-.21-1.01-.53-1.99-.89-2.96-.36-.94-.83-1.83-1.33-2.91,1.75.59,3.43,1.15,5.11,1.72,0,.09,0,.17-.01.26-.42.05-.84.09-1.36.15.34,1.26.67,2.49,1.02,3.8,1.18-.45,2.06-1.25,2.81-2.21.07-.09-.06-.42-.18-.56-.15-.18-.38-.29-.61-.45,1-.33,2.79.26,3.66,1.21-.61.17-1.21.29-1.77.5-2.51.92-4.18,2.58-4.66,5.3M45.56,116.5c-.8-.39-1.28-.02-1.65.67-1,1.86-2.03,3.7-3.01,5.56-.3.58.26,1.4,1.11,1.47.78.06,1.58-.1,2.36-.19.19-.02.38-.14.61-.23.21.59-.18.93-.51,1.25-.87.85-.51.9-1.7.3-1.54-.76-3.05-1.58-4.55-2.42-.5-.28-.92-.7-1.37-1.06.05-.06.09-.11.14-.17.04,0,.1-.04.13-.02.95.51,1.39-.09,1.78-.81.95-1.78,1.91-3.55,2.81-5.36.12-.24-.06-.65-.16-.96-.06-.19-.21-.35-.26-.58,1.58.67,3.2,1.2,4.47,2.47-.12.06-.17.1-.19.09M32.29,118.71c-2.33-1.22-3.62-3.15-3.83-5.74-.17-2.13,1.25-3.73,3.61-4.25,3.56-.78,7.22,2.08,7.2,5.61.15,3.66-4.24,5.81-6.98,4.38M25.03,111.96c-1.49-1.02-2.15-2.67-3.28-3.95.04-.07.09-.15.13-.23.24.08.48.19.73.24.31.06.72.21.93.08.9-.55,1.73-1.18,2.71-1.87-.72-.98-1.35-1.87-2.02-2.74-.08-.1-.41-.14-.52-.06-.9.63-1.78,1.28-2.64,1.96-.11.08-.06.42-.02.62.05.23.17.45.29.74-.89-.31-2.8-2.71-3.37-4.27.37.2.65.28.84.46.33.33.59.3.94.04,1.58-1.18,3.17-2.36,4.78-3.51.71-.51,1.4-1,.59-2.05,1.04.32,2.77,2.55,3.27,4.15-.22-.1-.43-.12-.5-.23-.37-.53-.81-.45-1.26-.17-.43.27-.86.54-1.24.86-.78.66-.81.71-.23,1.57.48.7,1.05,1.33,1.63,2.07.55-.34,1.1-.63,1.6-.98,1.01-.72.99-.74.7-1.93-.02-.08-.01-.17.06-.29,1.22,1.24,2.5,2.41,3,4.26-.19-.03-.29-.02-.31-.06-.41-.82-.96-.57-1.5-.18-1.73,1.25-3.46,2.51-5.14,3.81-.21.16-.24.63-.26.96-.02.22.12.45.11.72M15.28,80.37c.41-.35.68-.67,1.02-.86,1.3-.73,1.63-2.5.65-3.65-.67-.79-2.1-.67-2.58.28-.31.6-.44,1.3-.64,1.95-.11.37-.17.76-.29,1.13-.66,2.02-2.87,2.56-4.34,1-1.22-1.29-1.37-2.9-1.11-4.58.02-.12.11-.27.21-.32.6-.29,1.22-.53,2.17-.21-.41.39-.67.74-1.02.95-1.21.75-1.09,2.18.11,3,.39.27.77.27,1.04-.06.33-.39.63-.85.8-1.33.24-.67.33-1.38.5-2.07.42-1.69,1.14-2.27,3.24-1.96,1.71.26,2.87,1.75,3.07,3.69.04.36.05.74.03,1.1-.08,1.75-.86,2.33-2.87,1.92M7.13,63.6c1.03.17,1.94.32,2.85.47.01.08.02.17.03.25-.31.21-.65.38-.93.63-.32.28-.69.57-.85.94-.3.73-.07,1.06.72,1.08,2.32.05,4.64.08,6.96.07.22,0,.48-.31.65-.52.16-.2.23-.48.34-.72.08.02.17.04.25.06v5.06c-.07.03-.13.06-.2.09-.17-.26-.31-.54-.51-.77-.17-.19-.41-.45-.63-.46-2.23-.08-4.45-.13-6.68-.17-.92-.02-1.25.51-.8,1.35.21.39.58.7.88,1.05.22.25.44.5.67.75-.04.09-.08.17-.11.26-.87-.22-1.74-.45-2.65-.68.75-2.94.58-5.78.02-8.74M17.83,62.52c-.03.92-.58,1.56-1.35,1.57-.69,0-1.13-.38-1.13-1.01,0-.85.74-1.79,1.4-1.78.53,0,1.09.65,1.08,1.23M9.63,52.67c.51-1.55,1.03-3.09,1.56-4.63.36-1.05.82-2.01,2.02-2.34,1.76-.48,3.37.78,3.53,2.77.1,1.15-.12,1.77-1.15,3.13.58.22,1.12.43,1.67.63.08.03.18.04.26.08.81.41,1.54.54,2.04-.47.06-.11.26-.15.6-.34-.69,1.79-.76,3.6-1.89,5.03-.08-.05-.15-.08-.14-.1.19-.96-.4-1.34-1.17-1.6-1.98-.67-3.95-1.36-5.94-1.99-.23-.07-.6.17-.84.35-.23.17-.38.45-.57.68-.08-.04-.15-.08-.22-.11.08-.36.14-.74.26-1.09M15.28,39.64c1.94.17,3.88.41,5.82.6,1.49.15,2.98.24,4.52-.51-.48,1.71-1.2,3.15-2.43,4.5-.05-.24-.1-.34-.08-.41.32-.89-.29-.98-.91-1.08-.34-.05-.69-.17-1.02-.14-.26.02-.59.17-.72.37-.43.67-.8,1.39-1.16,2.11-.05.1,0,.33.08.43.28.33.58.65.91.93.49.42.94.39,1.35-.15.16-.21.41-.34.62-.51.09.07.18.14.27.21-.56,1.08-1.13,2.15-1.69,3.23-.08-.02-.15-.03-.23-.05-.7-2.68-2.76-4.38-4.42-6.38-.55-.67-1.06-1.39-1.51-2.13-.4-.64-.13-1.09.62-1.02M21.12,30.42c.2-.31.44-.59.63-.9.33-.53.65-1.07,1.02-1.69.79.35,1.65.85,1.99,2.07-1.28-.27-2.45-.37-3.21,1.07,2.08,1.55,4.16,3.11,6.28,4.64.17.12.57-.02.83-.12.21-.08.38-.28.64-.36-.62,1.73-1.84,3-3.04,4.28-.08-.04-.15-.08-.23-.11.05-.19.05-.42.16-.56.31-.43.2-.75-.18-1.06-1.32-1.07-2.63-2.15-3.95-3.22-.39-.32-.77-.66-1.2-.93-.32-.21-.9-.53-1-.43-.29.28-.53.75-.55,1.16-.04.72.09,1.45.15,2.27-1.07-.46-1.35-1.49-1.98-2.33,1.79-.75,2.69-2.29,3.66-3.76M28.9,22.44c1.19-1.03,2.27-.99,3.16-.15.89.83.97,2.02.27,3.18,1.25.42,2.5.86,3.77,1.26.76.24,1.53.21,2.34-.33-.3-.71-.51-1.48-.91-2.12-.88-1.4-1.86-2.73-2.81-4.09-.39-.56-.83-.94-1.53-.42-.08.05-.22.02-.51.04,1.26-1.46,2.73-2.31,4.38-3.07-.01.16.01.27-.03.31-.67.62-.47,1.24-.04,1.89,1.17,1.76,2.32,3.54,3.51,5.28.11.16.47.2.72.21.31,0,.63-.08,1.02.02-.19.17-.36.36-.57.51-1.26.85-2.53,1.68-3.78,2.53-.49.33-1.04.63-1.44,1.07-.62.68-1.24.57-1.96.25-.86-.38-1.73-.74-2.62-1.03-.38-.13-.83-.08-1.25-.11-.05.07-.09.14-.13.22.34.47.65.97,1.02,1.41.26.32.63.54.9.85.43.46.85.59,1.36.14.09-.08.24-.09.38-.14-.16.86-2.32,2.94-3.86,3.7.1-.34.12-.61.26-.79.3-.39.24-.7-.06-1.04-1.56-1.72-3.12-3.44-4.67-5.16-.29-.32-.59-.29-.91-.03-.15.12-.31.22-.47.33-.08-.09-.16-.17-.24-.26,1.55-1.49,3.06-3.04,4.68-4.44M41.01,14.86c1.26-1.53,3-2.33,4.82-2.94.57-.19,1.49.84,1.54,1.74-.51-.16-.98-.37-1.48-.47-1.76-.37-3.02.38-3.38,2.15-.41,2-.02,3.85,1.45,5.36,1.13,1.15,2.82,1.32,4.18.46.63-.4,1.1-.88,1.05-1.72-.02-.39.11-.79.19-1.29,1.13.77,1.22,1.66.32,2.58-1.41,1.44-3.19,2.06-5.16,2.09-2.25.04-4.04-1.37-4.57-3.56-.4-1.63,0-3.1,1.06-4.38M53.65,9.66l.11.16c-.14.15-.25.38-.41.43-.64.17-.69.64-.58,1.13.18.83.42,1.64.66,2.58,1.37-1.1,1.71-2.77,2.74-4.21-.49-.07-.82-.11-1.3-.18,1.22-.94,2.58-.87,3.93-1.02-.31.25-.62.49-.93.74-.93.77-1.75,1.62-2.23,2.76-.17.4-.14.65.21.95,1.77,1.55,3.6,3.01,5.75,3.99.1.05.19.12.31.38-1.54.43-3.09.86-4.85,1.35.57-1.26-.07-1.79-.82-2.27-.77-.49-1.55-.97-2.49-1.55.09.6.14,1.08.24,1.56.05.27.2.51.27.78.18.76.49,1.36,1.44,1.2.07-.01.16.07.36.16-1.66.92-3.35,1.26-5.1,1.41-.04-.06-.08-.12-.11-.18.21-.16.44-.3.63-.48.17-.17.44-.42.41-.59-.29-1.65-.63-3.29-.98-4.92-.09-.4-.24-.79-.39-1.17-.31-.77-.87-1.29-1.85-1.5,1.6-1.12,3.4-.99,5.01-1.51M61.88,8.1c.17-.16.49-.22.74-.22.1,0,.27.29.29.46.14,1.23.18,2.46-.27,3.83-.72-1.12-1.07-2.17-1.05-3.32,0-.26.11-.57.28-.75M65.16,16.32c.04-.57.01-1.14.01-1.71.1-.02.19-.03.29-.05.29.48.6.95.87,1.45.72,1.33,2.02,1.26,2.9.85.61-.28.97-.76,1.03-1.44.06-.69-.23-1.23-.83-1.54-.65-.34-1.33-.62-2-.92-.19-.09-.38-.16-.57-.26-.93-.47-1.66-1.1-1.66-2.25,0-1.22.67-2.02,1.72-2.52,1.22-.57,2.48-.61,3.77-.29.5.12.75.39.7.92-.04.47-.04.94-.07,1.41-.08.03-.16.05-.24.08-.29-.46-.58-.93-.88-1.38-.62-.92-1.75-1.02-2.53-.22-.66.67-.61,1.57.2,2.04.63.36,1.34.6,2.03.83,1.82.61,2.24,1.03,2.34,2.55.1,1.42-.6,2.53-2.05,3.2-1.48.68-2.98.65-4.49.08-.39-.14-.59-.36-.56-.81M80.16,10.26c2.3-1.18,4.64-1.08,6.94.1.56.28.87.62.65,1.29-.09.27-.07.57-.1.86l-.21.11c-.28-.35-.69-.67-.81-1.07-.56-1.91-3.56-2.02-4.74-.45-1.41,1.86-1.76,3.93-.94,6.11.76,2.01,3.02,2.38,4.52.85.26-.27.64-.44.96-.65.07.07.13.13.2.2-.17.51-.33,1.03-.52,1.53-.04.1-.21.18-.34.21-2.5.46-4.83.12-6.72-1.72-2.35-2.28-1.8-5.85,1.12-7.34M90.99,13.38c2.27-.86,4.94-.23,6.59,1.53.91.97,1.33,2.06,1.33,3.44,0,3.3-3.03,5.69-6.26,4.8-1.06-.29-2.09-.84-3-1.47-1.55-1.08-2.27-2.67-1.97-4.56.3-1.9,1.55-3.08,3.3-3.74M102.67,18.26c-.18-.18-.32-.41-.47-.61.04-.05.08-.11.12-.16.36.17.76.29,1.07.53.61.48,1.2,1.01,1.74,1.57.13.13.09.5.03.73-.44,1.62-.9,3.23-1.35,4.84-.05.17-.07.35-.14.68.64-.28,1.16-.48,1.66-.74,1.14-.6,2.26-1.23,3.38-1.86.38-.22.7-.21,1.08.05.83.56,1.69,1.09,2.17,2.07-.13.04-.22.1-.25.08-.66-.63-1.17-.27-1.59.27-1.22,1.55-2.41,3.13-3.6,4.7-.13.18-.22.41-.29.62-.18.51-.35,1.04.1,1.48.48.46,1.09.48,1.67.24.4-.16.79-.38,1.14-.64,1.43-1.04,2.84-2.12,4.28-3.15.56-.4.83-.78.31-1.39-.06-.07-.05-.21-.12-.51.31.2.53.27.65.42.57.71,1.14,1.44,1.65,2.19.11.16.03.54-.09.75-.72,1.33-1.48,2.65-2.22,3.97-.15.28-.28.57-.53,1.07,1.14-.23,2.09-.39,3.04-.62.87-.21,1.72-.51,2.58-.71.24-.06.63.01.77.18.67.8,1.28,1.66,1.91,2.5-.04.07-.07.13-.11.2-.23-.1-.51-.14-.68-.3-.39-.37-.68-.3-1.06.02-1.59,1.32-3.21,2.62-4.81,3.93-.59.48-1.35.91-.54,1.92-1.63-.97-2.41-2.48-3.16-4.06.15.07.36.09.43.21.39.6.82.45,1.27.11,1.46-1.09,2.92-2.19,4.32-3.38-2.55.32-4.88,1.52-7.57,1.55.84-2.4,2.45-4.3,3.45-6.52-.04-.05-.08-.1-.12-.15-1.02.66-2.05,1.32-3.07,1.99-.21.14-.41.3-.59.47-.34.31-.82.58-.95.97-.11.32.19.79.3,1.19.02.06,0,.13-.14.34-.32-.3-.76-.55-.94-.92-.62-1.34-1.7-2.19-2.87-2.99-.81-.55-1.63-1.1-2.11-2.04.12-.03.21-.08.24-.06.92.59,1.48-.03,1.97-.63.99-1.21,1.92-2.46,2.84-3.75-2.43.72-4.3,2.6-6.85,3.25.09-2.62,1.33-4.87,1.86-7.54-.53.5-.94.83-1.28,1.23-.83.96-1.61,1.95-2.44,2.91-.38.44-.39.78.04,1.18.17.16.28.41.33.68-1.16-.39-2.13-.99-2.69-2.12.09-.05.15-.1.16-.09.8.55,1.33.02,1.81-.49,1.09-1.18,2.14-2.4,3.21-3.6.34-.38.66-.77,1.04-1.1.39-.34.37-.63.03-.98M116.07,69.03c0,25.98-21.06,47.04-47.04,47.04s-47.05-21.06-47.05-47.04,21.06-47.05,47.05-47.05,47.04,21.06,47.04,47.05M121.73,38.84c.87.56,2.17,2.85,2.59,4.65-.23-.16-.44-.37-.69-.48-.26-.11-.63-.25-.83-.15-2.07,1.03-4.12,2.12-6.18,3.18-.38.2-.42.49-.34.87.05.22.04.46.06.69-.11.04-.23.07-.34.1-.78-1.53-1.56-3.06-2.34-4.59.08-.06.16-.13.24-.19.21.17.4.38.63.5.23.13.58.32.75.24,1.93-.95,3.86-1.93,5.76-2.94.68-.36,1.38-.77.7-1.88M127.75,51.76c.08.33.61.55.98.86-.81.65-1.76.75-2.9.71.23-.4.41-.72.59-1.04.33-.55.56-1.1.35-1.76-.1-.33-.25-.46-.6-.33-2.31.82-4.62,1.63-6.93,2.46-.48.17-.47.21-.54,1.43-1.26-1.43-1.37-3.14-1.86-4.71.05-.04.1-.09.15-.13.2.18.45.32.6.54.24.34.5.43.88.29,2.21-.77,4.41-1.56,6.62-2.31.63-.21.62-.59.28-.97-.29-.33-.71-.56-1.08-.81-.43-.28-.87-.53-1.31-.8.02-.09.04-.18.06-.27.89-.05,1.77-.09,2.71-.14-.05,2.52,1.39,4.62,1.98,6.97M129.15,57.85c.02.91.21,1.82.41,2.72.2.89.52,1.75.81,2.7-.87.08-1.78.16-2.69.24-.03-.08-.07-.15-.1-.23.14-.18.28-.37.43-.55.28-.33.68-.61.84-.99.15-.38.16-.89.05-1.29-.04-.14-.64-.22-.95-.17-1.95.3-3.89.68-5.84.96-.83.12-1.39.36-1.38,1.3,0,.08-.05.17-.09.26-.02.04-.07.05-.19.14-.91-1.63-.67-3.46-1.07-5.15.08-.04.16-.09.24-.13.17.23.38.43.5.68.18.39.43.56.87.48,2.3-.41,4.61-.81,6.91-1.19.65-.1.72-.49.45-.91-.28-.43-.7-.76-1.09-1.11-.34-.3-.72-.56-1.09-.84.04-.07.07-.13.11-.19,1.04-.18,2.04-.09,3.08.43-1,.92-.21,1.91-.19,2.84M69.03,0C30.9,0,0,30.9,0,69.03s30.9,69.03,69.03,69.03,69.03-30.9,69.03-69.03S107.15,0,69.03,0M91.45,22.27c1.01.5,1.92.21,2.75-.45,1.56-1.23,2.36-2.84,2.42-4.83-.07-.45-.1-.92-.22-1.36-.54-2.1-2.45-2.63-3.97-1.09-1.44,1.45-2.13,3.26-2.2,5.28-.04.98.2,1.95,1.22,2.44M60.57,122.67c-1.25,1.67-1.26,5.11-.01,6.8,1.13,1.52,3.16,1.47,4.01-.23.51-1.02.71-2.2,1.04-3.31-.32-1.08-.48-2.13-.93-3.03-.86-1.68-2.97-1.75-4.11-.24M35,109.66c-.88.06-1.66.36-2.32.94-1.46,1.29-2.18,2.92-2.28,4.5-.02,1.68.66,2.55,1.94,2.86.13.03.27.03.4,0,2.64-.74,4.65-3.54,4.52-6.28-.07-1.35-.9-2.1-2.26-2.01M11.75,50.25c.83.42,1.73.71,2.63.94.77.2,1.18-.12,1.18-.93,0-.42-.18-.96-.48-1.21-.53-.43-1.21-.67-1.89-1.03-.59.29-1.16.45-1.56.79-.61.52-.57,1.08.13,1.43M18.84,44.53c.27-.52.54-.97.72-1.45.06-.15-.1-.55-.21-.57-.84-.17-1.7-.27-2.66-.41.48,1.11,1.21,1.81,2.16,2.43M75.65,82.09c.39-.69.54-1.43.14-2.17-.38-.7-1.06-.84-1.78-.78-.49.04-.77-.11-.9-.52.48-1.34,1.05-.36,1.6-.01-.01-1.03-.41-1.33-1.21-1.04-.72.26-1.1.96-.93,1.7.23.99.88,1.43,2.14,1.36.62-.03.77.34.81.79.04.46-.28.73-.72.75-.28.01-.57-.1-.9-.16.55.97,1.23.99,1.75.07M54.96,77.2c.08-.07.67.26.65.32-.11.54-.32,1.05-.53,1.68.25.19.68.5,1,.73.63-1.7,1.22-3.28,1.88-5.03-2.03.34-2.83,2.37-4.67,2.57-.02.07-.03.14-.05.21.27.26.55.52.73.69.38-.48.65-.88.99-1.18M49.97,45.89c-.72.84-.79,2.72-.05,3.54.27.3.7.56,1.09.64,1.56.34,3.08-.82,3.23-2.41.02-.18-.04-.43-.15-.55-.36-.37-.76-.7-1.22-1.11-.35.53-.67,1.01-1.07,1.63.34-.03.43-.04.52-.05.67-.06,1.17.22,1.18.65.01.39-.53.79-1.12.83-.87.05-1.86-.62-2.22-1.48-.39-.97-.17-1.39.85-1.63.15-.04.31-.09.55-.15-.75-.46-1.15-.43-1.58.08M54.5,42.26c-.68-.02-1.01.33-.94,1,.11,1.14.81,1.94,1.97,2.28.76.22,1.24-.15,1.24-.95,0-1.03-1.24-2.3-2.27-2.33M57.43,43.83c-.01,1.49-1.02,2.6-2.37,2.59-1.3,0-2.27-1.04-2.28-2.43-.01-1.44,1.05-2.41,2.61-2.41,1.27,0,2.06.87,2.05,2.25M58.38,39.54c.37,1.1.65,2.03,1.02,2.93.11.26.51.62.71.58.3-.06.63-.38.78-.68.47-.92-.2-2.41-1.24-2.76-.35-.12-.77-.06-1.27-.08M58.32,44.21c.04-1.53-.11-2.9-1.59-3.8.18-.19.32-.38.51-.52.9-.68,1.92-.95,3.04-.81.84.11,1.52.48,1.78,1.31.29.91.13,1.78-.61,2.46-.86.79-1.93,1.1-3.13,1.36M63.3,82.05c-.58.35-.92.17-.93-.5,0-.18-.03-.4.05-.54.17-.3.41-.56.62-.85.15.24.3.49.46.72.02.03.07.05.18.12.09-.55.17-1.05.25-1.6-.4.18-.65.29-.9.41-.03-.34-.08-.69-.08-1.03,0-.13.09-.26.16-.37.26-.4.53-.4.79,0,.13.19.26.39.49.74.11-.52.17-.84.26-1.24-.46-.1-.88-.21-1.3-.29-.92-.18-1.88-.23-2.58-1-.1-.11-.34-.12-.52-.13-1.53-.09-2.75,1.07-2.82,2.67-.04.99.22,1.83,1.17,2.3.81.41,1.13.32,1.61-.44.28-.44.53-.9.82-1.4-.47-.2-.88-.38-1.38-.59.08.9-.11,1.56-.83,2.02-.68-.7-.65-1.47-.33-2.26.35-.87.88-1.57,1.86-1.76.42-.09.65.14.7.56.03.2.05.4.09.69.29-.31.49-.52.68-.73.3,1.7-.15,3.17-.98,4.63.98.23,1.89.45,2.87.68.08-.41.14-.72.24-1.23-.34.22-.5.32-.67.43M89.57,63.68c.13.17.28.33.38.51.11.21.29.49.22.65-.09.21-.38.45-.59.45-.44,0-.9-.11-1.32-.25-.15-.05-.24-.29-.35-.44.14-.1.27-.22.42-.3.18-.1.38-.16.56-.24-.01-.06-.02-.13-.03-.19-.55-.09-1.11-.18-1.66-.27.13.43.23.73.32,1.03-.37,0-.75.01-1.12.02-.02,0-.05,0-.07-.02-.58-.22-.65-.54-.17-.94.21-.17.45-.33.71-.52-1.06-.45-1.08-.39-1.26.56-.13.68-.44,1.34-.7,1.99-.2.49-.5.93-.68,1.43-.34.94-.09,1.79.62,2.45.88.82,1.94,1.15,3.12.76.91-.3,1.3-1.03,1.43-1.93.09-.65-.21-.96-1-.97.16.22.35.4.43.62.15.42.41.89-.19,1.19-1.11.56-2.89.08-3.58-.96-.7-1.06-.43-1.66.82-1.8.03,0,.05-.06.1-.12-.15-.14-.31-.29-.57-.54,1.75-.12,3.25.17,4.66,1.09.27-1.05.52-2.04.78-3.08-.4-.12-.76-.24-1.12-.35-.05.06-.09.11-.14.16M54.49,107.87c-.69.04-.86-.32-.83-.94.04-.83.04-1.65.04-2.48-.02-1.35-.06-2.7-.09-4.15-1.38.37-2.77.27-3.69,1.5.49-.1.99-.19,1.56-.31.23,2.01.39,3.95-.02,5.88-.04.19-.37.37-.6.47-.28.11-.59.12-.89.18.01.09.03.17.04.26,1.66.17,3.32.47,4.99-.26-.17-.05-.34-.14-.51-.13M81.9,102.31c.31-.29.65-.55.92-.87.47-.54,1.04-.68,1.68-.45.67.24,1.12.78.99,1.48-.13.72-.41,1.46-.81,2.06-.51.75-1.24,1.35-1.84,2.05-.42.49-.79,1.03-1.17,1.53.16.14.2.2.23.2,1.76.02,3.53.04,5.29.03.11,0,.31-.22.32-.34.03-.58.02-1.16.02-1.77-1.93.68-2.97.76-3.67.25.35-.28.71-.53,1.02-.83.81-.78,1.69-1.51,2.36-2.4.89-1.19.43-2.41-.99-2.87-1.27-.41-2.52-.25-3.61.53-.41.29-.66.79-.98,1.2.08.07.16.14.24.21M75.8,102.48c.23-.11.46-.29.7-.31.55-.06,1.11-.09,1.65-.05,1.28.11,1.69-.45,1.57-1.93-1.22.15-2.45.29-3.67.46-.18.03-.44.19-.49.35-.29.87-.51,1.76-.78,2.64-.16.52-.1.79.52.89.74.13,1.47.34,2.18.6.64.24,1.05.72,1.08,1.45.03.74-.31,1.31-.95,1.63-.68.33-1.4.56-2.11.84-.21.08-.42.17-.63.26,1.59.26,3.03-.02,4.26-1.01.98-.78,1.51-1.79,1.28-3.08-.23-1.25-1.23-1.63-2.27-1.92-.77-.21-1.54-.4-2.32-.6-.01-.07-.02-.15-.03-.22M60.47,108.11c.96-.72,1.66-1.64,1.99-2.82.64-2.3-.26-4.21-2.33-4.9-2.27-.76-4.13.79-3.77,3.16.14.93.65,1.62,1.55,1.94.7.25,1.36.14,1.98-.37-1.51-.6-2.29-1.78-2.01-3.15.1-.47.49-.87.75-1.31.4.26.91.44,1.18.8,1.52,1.99,1.2,4.6-.79,6.43-.65.6-1.4,1.1-2.23,1.74,1.45-.28,2.63-.74,3.67-1.53M79.95,76.12c.09-.02.19-.04.28-.06-.05-.32-.01-.72-.19-.95-.23-.29-.64-.45-.96-.66-.06.07-.11.14-.16.22.06.68.56,1.06,1.04,1.45M79.29,78.81c.69.55.66,1.03-.01,1.41-.65.37-1.28.79-1.97,1.23-.58-1.5-.96-3.15-2.62-4.02,2.23-1.76,4.4-3.47,6.57-5.19.32,1.04,1.44.79,2.16,1.31-.04-1.13-.53-1.79-1.64-2.21.55-.77,1.09-1.52,1.66-2.31,1.02,1.42,2.22,2.48,4.01,2.67-.21.7-.42,1.35-1.27,1.63-.43-1.62-2.02-1.83-3.1-2.68-.07.03-.13.06-.2.09.15.5.24,1.03.48,1.48.31.61.77,1.14,1.11,1.74.23.4.37.86.55,1.29-.05.05-.1.09-.15.14-1.46-.63-2.91-1.25-4.36-1.87.56,1.5,1.07,2.96,2.88,3.17-.3.85-.66,1.01-1.33.65-.24-.13-.47-.3-.7-.43-.24-.13-.48-.25-.74-.38-.01.82.39,1.21,1.59,1.41-.58.49-1.04.88-1.58,1.33-.48-1.39-1.39-2.35-2.37-3.25-.17-.16-.44-.23-.66-.33.04.23.07.46.11.69,0,.05,0,.09,0,.1-.49.03-.98.06-1.53.09.18.73.34,1.32.98,1.45.14.03.39-.44.68-.79.24.38.5.81.81,1.3-.5-.1-.87-.17-1.24-.24-.05.07-.1.15-.16.22.25.42.46.87.75,1.25.14.18.5.35.67.29.23-.08.4-.38.53-.63.09-.16.07-.39.11-.61M52.56,69.54c-.09-.03-.18-.05-.26-.08-.34.45-1.14.42-1.18,1.26.47-.08.92-.21,1.28-.46.15-.1.12-.48.17-.73M46.44,67.07c-.03.1-.06.19-.08.29.29.12.63.39.86.32.78-.26,1.53-.6,2.25-.98.39-.21.69-.57,1.02-.87-.05-.06-.09-.12-.14-.18-1.45.09-2.62.92-3.91,1.43M47.77,70.6c1.89.06,2.78-1.43,4.17-1.98-.02-.07-.04-.14-.06-.21-.28.05-.56.11-.94.18.16-.5.83-1.09.06-1.38-.36-.14-.94.27-1.41.43-.01.09-.02.17-.03.26.3.17.61.34,1.06.59-.51.23-.97.44-1.6.72.1-.32.16-.42.16-.51.01-.19-.01-.39-.02-.58-.17.02-.35.03-.52.07-.11.02-.24.06-.31.13-.27.31-.51.63-.76.95.32.17.65.33.97.5.05.03.11.04.18.06-.5.62-.97.63-1.3,0-.54-1.06-1.06-2.13-1.56-3.21-.09-.19-.1-.43-.12-.53.62-.18,1.15-.33,1.68-.51.6-.21.35-.64.25-1.03-.14-.53-.54-.31-.77-.19-.54.28-1.04.65-1.57.99-.21-.49-.43-1.02-.7-1.66,1.9.14,3.33-.46,4.61-1.84.25.55.47,1.04.71,1.58-1.96.16-2.29.54-1.51,1.79.58-.37,1.17-.73,1.67-1.05.75,1.37,1.54,2.78,2.29,4.22.31.58.58,1.2.78,1.83.19.64-.08,1.16-.71,1.13-1.33-.06-1.66,1.05-2.31,1.78-.07.08-.06.33.02.42.07.08.34.13.41.07,1.04-.88,2.45-1.32,3.2-2.79,1.07,1.15,2.1,2.26,3.21,3.45-.21.17-.57.45-1.03.81.04-.5.07-.88.1-1.26-.06-.03-.12-.06-.18-.08-1.04,1.08-2.49,1.76-3.04,3.52-.47-.46-.84-.83-1.23-1.21.62-.43,1.27-.81,1.83-1.3.56-.49,1.02-1.09,1.54-1.66-1.22-.76-2.81.11-4.02,2.13-.58-.74-1.16-1.44-1.68-2.18-.09-.13.02-.48.15-.66.32-.46.7-.89.99-1.39-.8-.02-1.22.45-1.52,1.31-.39-.59-.72-1.07-1.13-1.69M72.75,84.54c1.47,1.85,3.31,3.25,5.4,4.31,4.73,2.4,9.76,3.18,14.99,2.54,6.46-.79,11.39-4.05,14.8-9.56,2.34-3.78,2.35-7.54-.53-11.13-.29-.36-.54-.75-.77-1.14-.52-.88-.47-1.17.12-2,.52-.75,1.06-1.5,1.47-2.31.82-1.63,1.1-3.4,1.13-5.21.07-4.31-1.5-7.82-5.21-10.17-2.64-1.67-5.56-2.09-8.62-1.58-1.75.29-3.41.88-5.06,1.85,2.9,7.2,2.94,14.28-.91,21.18-3.8,6.82-9.44,11.12-17.25,12.62.18.25.3.43.43.61M85.55,49.2c.7.37,1.08.07,1.39-.29.13-.14.11-.41.16-.63-.07-.02-.14-.05-.21-.07-.42.31-.84.62-1.34.98M75.6,43.7c1.56-.49,2.77-2.59,2.25-3.93-1.37.06-2.93,2.71-2.25,3.93M71.77,108.09c-.08-.51-.16-.96-.23-1.41-.59-3.85-.71-7.73-.72-11.62,0-5.17.03-10.35.04-15.52.01-5.45.01-10.9.04-16.35,0-1.16.09-2.32.14-3.52,2.21,0,4.35-.03,6.49.01,2.87.06,5.74.14,8.61.29.97.05,1.93.36,2.93.55v-6.16c-5.95,1.16-11.89.73-17.69.58-.1-2.79-.11-5.48-.3-8.16-.27-3.94-.25-7.84.68-11.71.38-1.59.54-3.24.82-4.98-2.95.07-5.72-.21-8.6.16.44,1.57.8,3.04,1.28,4.48,1.03,3.08,1.58,6.22,1.44,9.48-.13,2.78-.22,5.56-.33,8.34-.04.84-.09,1.67-.14,2.58-2.66,0-5.26.04-7.86-.01-2.46-.05-4.91-.14-7.36-.33-1.08-.08-2.14-.43-3.25-.67v6.42c6.15-2.03,12.32-.79,18.49-.7.02.28.03.48.03.68.01,12.19.04,24.38.02,36.56,0,2.11-.14,4.23-.28,6.33-.1,1.55-.3,3.1-.46,4.69h6.22ZM78.1,42.76c.38-.54.76-1.09,1.13-1.64.1-.14.14-.33.26-.63.37.28.69.51,1.04.77-.75,1.46-2.73,2.23-2.34,4.39,1.77-.66,2.39-2.17,3.12-3.81.53.45,1.03.82,1.47,1.26.12.12.14.43.09.62-.17.68-.39,1.35-.64,2.18.87-.44,1.31-1.03,1.42-2.1,1.03,1,1.93,1.88,2.89,2.81-.29.27-.62.57-1.07.99.1-.45.16-.71.22-1.01-1.13.33-2.77,1.92-3.09,2.98.83.17,1.5-.19,2.09-.66.57-.45,1.09-.98,1.6-1.51.27-.28.47-.28.75-.05.52.43.79,1.22.63,1.86-.19.72-.75.86-1.38.9-.11,0-.28-.02-.33.04-.54.66-1.07,1.33-1.66,2.07.8.31,1.39.17,1.85-.21.68-.57,1.28-1.25,1.92-1.87.18-.18.4-.33.6-.49.14.23.28.45.41.68.08.16.14.34.23.54-.49.43-1.42.33-1.59,1.26.76.32,1.27-.29,1.93-.43.14.22.28.46.49.81-1.8-.05-3.53-.3-5.02,1.18,1.83.23,3.32-.62,4.98-.73v9.08c-1.69-.4-3.35-.79-5.08-1.2-.18.75-.35,1.51-.55,2.25-.87,3.28-2.2,6.32-4.56,8.85-1.59,1.71-3.55,2.82-5.72,3.58-.61.21-1.22.41-1.8.69-.21.1-.44.41-.45.63-.04,6.23-.07,12.46-.06,18.69,0,4.51.22,9,1.12,13.5h-8.79c.16-1.08.34-2.15.47-3.23.19-1.57.34-3.15.51-4.72.05-.42-.09-.59-.53-.78-1.18-.5-2.3-1.13-3.54-1.76.46-.42.89-.78,1.28-1.17.83-.82,1.66-1.65,2.47-2.5.16-.17.3-.44.3-.66.02-1.95.01-3.9.01-6.01-.29.22-.48.36-.67.51-4.68,3.73-9.93,6.17-15.9,6.94-2.85.36-5.7.25-8.49-.44-2.98-.74-5.24-2.6-7.14-4.93-1.95-2.4-3.28-5.08-3.57-8.22-.21-2.26.47-4.22,1.89-5.94.82-.99,1.66-1.97,2.51-2.97-.61-.57-1.21-1.06-1.73-1.63-2.96-3.21-4.12-7.04-3.79-11.35.25-3.32,1.77-6.05,4.04-8.39,1.64-1.69,3.75-2.34,6.04-2.51,2.47-.18,4.9.17,7.32.68-.4,1.38-.85,2.71-1.15,4.07-1.71,7.52-.64,14.53,4.09,20.78,3.76,4.97,8.87,7.82,14.92,9.06.47.1.94.16,1.51.25.05-.73.13-1.38.14-2.04.02-1.61-.02-3.22,0-4.83,0-.62-.37-.87-.87-.98-6.66-1.43-10.5-5.74-12.35-12.08-.15-.53-.25-1.07-.36-1.61-.1-.54-.19-1.08-.3-1.72-1.54.42-3.07.83-4.62,1.25v-9.33c.91.19,1.71.35,2.51.53.87.2,1.75.4,2.61.65.47.14.67.01.88-.43,1.35-2.85,3.21-5.3,5.83-7.12,1.87-1.3,3.93-2.19,6.15-2.67.7-.15,1.01-.46.92-1.14-.23-1.61-.47-3.22-.72-4.82-.09-.54-.23-1.07-.34-1.59-5,.56-12.63,3.17-17.92,12.44-2.81-3.34-5.07-6.86-4.19-11.53.48-2.53,1.97-4.42,3.9-6,2.36-1.92,5.06-3.06,8.1-3.33,1.99-.18,3.84.25,5.45,1.49.94.73,1.87,1.5,2.8,2.24.19.15.4.29.78.56-.21-.75-.35-1.31-.53-1.85-.16-.51-.05-.82.51-.85,1.51-.07,3.02-.17,4.52-.18,1.12,0,2.25.16,3.37.18,1.68.03,3.18-.44,4.52-1.54.78-.64,1.72-1.23,2.68-1.46,2.41-.57,4.71-.01,6.82,1.22,3.39,1.98,5.82,4.76,6.77,8.66.42,1.68.34,3.41-.29,5.02-.78,1.97-1.73,3.88-2.65,5.9-1.07-1.16-2.03-2.22-3.01-3.24-3.17-3.3-6.76-5.95-11.25-7.17-.53-.14-1.07-.29-1.61-.36-.19-.02-.52.16-.59.33-.51,1.27-.63,2.61-.51,3.97.47-.72.85-1.47,1.39-2.09.71-.82,1.74-.92,2.48-.38.55.4.52.81-.09,1.21-.05-.34-.11-.67-.16-.99-1.7.07-2.98,2.05-2.58,3.95.63.07,1.09-.28,1.48-.7.45-.49.82-1.06,1.28-1.53.29-.3.66-.6,1.05-.73.86-.28,1.63.23,1.57,1.11-.05.78-.33,1.55-.51,2.32-.61.43-1.16.97-1.83,1.26-.89.39-1.36.04-1.56-.92-.06-.27-.11-.54-.16-.81-.03.08-.05.15-.08.23-.37.05-.78.22-1.11.12-.4-.11-.73-.45-1.1-.69-.44.8-.24,1.73.5,1.97,4.89,1.62,8.38,4.83,10.64,9.42.28.57.6.83,1.34.53-.21-.53-.34-1.1-.64-1.56-.44-.69-.29-1.18.26-1.69.23-.22.39-.5.59-.75-.08-.07-.15-.13-.23-.2-.42.4-.84.81-1.34,1.29-.63-.73-1.32-1.53-2.03-2.35,2-1.18,3.24-2.4,3.36-3.26-.29.11-.57.22-.85.32-.08-.1-.16-.2-.24-.3.28-.09.56-.18.84-.27-.08-.08-.16-.16-.24-.24-1.69.52-2.09,2.49-3.5,3.32-.06-.03-.12-.06-.18-.09.37-1.21.73-2.43,1.1-3.64-.09-.05-.19-.1-.28-.15-.65.85-1.29,1.7-1.95,2.56-.11-.09-.33-.27-.59-.47,1.33-1.03,2.62-2.02,3.08-3.71-.32.09-.64.2-.82.42-.33.4-.58.87-.88,1.31-.27.39-.51.83-.85,1.16-.46.46-1.42.52-1.86.16-.56-.47-.24-1.01-.03-1.51.13-.32.33-.6.47-.92.08-.17.11-.37.17-.56M122.3,125.4l.03-.1.06-.28.03-.11.05-.21.04-.11.03-.13s.03-.07.05-.11l.03-.06.05-.07.1-.22.04-.06s.02-.03.03-.05l.2-.27.15-.17.07-.1.16-.16.09-.09.17-.14.31-.19.11-.09.24-.14.24-.1.15-.06.23-.08.13-.03.12-.03c.07-.02.16-.03.23-.02h.02s.23,0,.23,0h.02s.1-.02.15-.02h.05s.1,0,.1,0h.03c.05,0,.11-.02.16,0h.06c.05.02.1.02.16.05h.01l.17.02s.08.01.12.03l.08.03.24.07h.1l.19.06.08.03s.06.03.09.05l.15.08.09.06s.04.03.05.04l.22.2.18.11.1.08.19.15.07.07s.03.03.04.04l.15.19s.03.04.04.07l.09.18.1.05.11.17.04.06s.04.06.05.09l.07.17.03.11.09.23.03.11.07.22.02.04c.02.05.03.11.04.16v.1s.02.05.02.07v.4s.02.05.02.05c.01.07,0,.12,0,.18v.14l-.02.23v.08s-.04.22-.04.22c0,.02,0,.06-.02.08l-.11.29-.04.13-.07.17-.03.11-.14.26-.08.14c-.03.05-.07.11-.11.15h-.02s-.07.15-.07.15c-.02.05-.06.09-.1.13h-.01s-.16.19-.16.19l-.08.1-.15.16s-.03.04-.05.05l-.22.17-.09.06-.14.1s-.08.05-.12.07l-.04.02-.18.08-.12.06-.18.07-.31.09s-.06,0-.08,0h-.03s-.26.06-.26.06h-.03s-.11.04-.16.04h-.15l-.12-.02-.13.02h-.25s-.36-.05-.36-.05l-.25-.02h-.07s-.06-.02-.08-.03l-.11-.04c-.05-.02-.11-.04-.15-.08h0s-.21-.12-.21-.12l-.11-.06-.25-.13-.08-.06-.2-.12-.05-.02c-.06-.03-.09-.05-.13-.09l-.12-.11-.09-.09-.15-.18-.09-.1-.12-.19-.08-.11-.12-.18-.05-.11-.11-.16s-.04-.08-.05-.11l-.02-.06-.08-.2c-.04-.06-.07-.12-.08-.22l-.02-.12-.03-.11-.06-.24-.02-.14-.02-.21v-.25s-.02-.11-.02-.11v-.13l.02-.18s0-.06.02-.08ZM123.28,126.5l.06.23.06.1.09.24.08.09.11.23.17.2s.04.05.05.07l.04.06.18.2.07.09.15.14.11.09.16.1.11.02.24.12.11.06.18.03s.06,0,.08.02l.07.02h.4s.1.02.1.02l.13-.02h.38s.08-.04.08-.04l.25-.06.08-.04.24-.08.1-.03.22-.13.1-.07.18-.16.08-.09.13-.13s.05-.04.08-.06l.05-.02.15-.21.05-.13.1-.21c0-.07.03-.13.06-.18l.07-.13.06-.11.06-.23v-.13s.02-.24.02-.24v-.2s0-.05.01-.09l.02-.06.02-.12-.03-.23-.04-.08-.06-.28-.03-.13-.08-.17s-.03-.07-.04-.11v-.05s-.14-.22-.14-.22l-.08-.1-.18-.2-.06-.07-.14-.17-.1-.04-.17-.16-.07-.05-.19-.11s-.05-.02-.07-.04l-.05-.05-.22-.1-.13-.03-.13-.03c-.06-.01-.13-.04-.18-.07l-.02-.02h-.23s-.15,0-.15,0h-.23l-.1.02h-.22s-.06,0-.08,0h-.07s-.34.11-.34.11l-.12.07-.11.03-.09.04-.18.12-.08.06-.1.09-.17.14-.08.06-.16.16-.08.11-.14.17-.05.07-.08.2-.05.11-.07.18-.06.13-.04.08-.06.22-.02.1v.37s0,.11,0,.11l.03.11v.48ZM125.51,126.7l.04.26s.01.05.01.07v.16s-.01.07-.02.1l-.02.09-.02.19v.06c-.03.14-.2.19-.34.21h-.08s-.05,0-.07,0l-.25-.02h.01s-.12-.08-.19-.16c-.05-.06-.05-.14-.05-.21v-.11l-.03-.13-.02-.22v-.32s.01-.05.01-.07v-.07s.04-.25.04-.25l-.02-.14v-.21s-.01-.06-.01-.06c0-.03.01-.04.01-.07l.02-.21-.02-.12v-.25s-.03-.11-.03-.11v-.27s0-.29,0-.29v-.11s-.01-.27-.01-.27c.01,0,.1-.13.18-.19.05-.04.11-.04.17-.04h.19s.12-.03.12-.03h.21s.06,0,.09,0h.08s.22.02.22.02c.09-.02.17-.01.25,0l.11-.02h.07s.08.01.12.02l.15.05h.07c.06.02.13.03.18.06l.14.09.04.02s.09.05.13.1l.08.09.07.12s.02.04.03.05l.07.15.04.09.04.09c.03.08.04.15.03.22v.11s-.03.13-.03.13v.1s0,.17,0,.17c0,.05-.02.1-.04.15l-.02.02-.07.15c-.03.06-.07.11-.13.16l-.13.09-.09.06-.05.19.02.08.05.12.11.23.04.09.13.23.05.07.03.03s.06.09.07.14l.03.12.03.07s.03.07.04.12v.04l-.08.07h-.09s0,0-.02,0h-.23s-.1.02-.1.02h-.24c-.08,0-.18-.05-.26-.12l-.02-.02-.03-.09-.08-.17c-.02-.05-.03-.1-.04-.14v-.04s-.11-.17-.11-.17c-.02-.04-.03-.07-.04-.1l-.02-.05-.09-.17s-.03-.08-.04-.11l-.02-.03-.12-.14-.18-.03-.06.15v.1ZM125.5,124.94l.03.11-.03.11.02.14c.01.05,0,.07,0,.12v.14l.06.1.23-.04.13-.02h.13l.15-.14v-.12s-.03-.16-.03-.16v-.12s-.11-.12-.11-.12l-.13-.05-.12-.02-.22-.03-.11.1Z"/>
  </g>
</svg>